<svg width="2964" height="1000" viewBox="0 0 2964 1000" fill="none" xmlns="http://www.w3.org/2000/svg">
<path d="M841.143 672.689L503.903 874.971L166.664 672.689V125.002L503.903 327.283L841.143 125.002V672.689ZM274.64 611.657L449.908 716.785V420.808L274.64 315.68V611.657ZM557.898 420.808V716.785L733.167 611.657V315.68L557.898 420.808Z" fill="#FF7A42"/>
<path d="M2760.84 757.091C2719.5 757.091 2683.67 747.996 2653.36 729.806C2623.04 711.616 2599.52 686.168 2582.8 653.462C2566.26 620.757 2558 582.539 2558 538.809C2558 495.08 2566.26 456.77 2582.8 423.881C2599.52 390.992 2623.04 365.452 2653.36 347.262C2683.67 329.072 2719.5 319.977 2760.84 319.977C2802.18 319.977 2838.01 329.072 2868.33 347.262C2898.65 365.452 2922.07 390.992 2938.61 423.881C2955.33 456.77 2963.69 495.08 2963.69 538.809C2963.69 582.539 2955.33 620.757 2938.61 653.462C2922.07 686.168 2898.65 711.616 2868.33 729.806C2838.01 747.996 2802.18 757.091 2760.84 757.091ZM2761.39 677.165C2783.81 677.165 2802.55 671.01 2817.62 658.699C2832.69 646.205 2843.89 629.485 2851.24 608.538C2858.78 587.592 2862.54 564.257 2862.54 538.534C2862.54 512.627 2858.78 489.2 2851.24 468.254C2843.89 447.124 2832.69 430.312 2817.62 417.817C2802.55 405.323 2783.81 399.076 2761.39 399.076C2738.43 399.076 2719.32 405.323 2704.07 417.817C2689 430.312 2677.7 447.124 2670.17 468.254C2662.82 489.2 2659.14 512.627 2659.14 538.534C2659.14 564.257 2662.82 587.592 2670.17 608.538C2677.7 629.485 2689 646.205 2704.07 658.699C2719.32 671.01 2738.43 677.165 2761.39 677.165Z" fill="black"/>
<path d="M2373.82 748.821V325.486H2473.59V748.821H2373.82ZM2423.98 265.404C2408.18 265.404 2394.58 260.167 2383.19 249.694C2371.8 239.037 2366.11 226.267 2366.11 211.385C2366.11 196.318 2371.8 183.548 2383.19 173.075C2394.58 162.418 2408.18 157.09 2423.98 157.09C2439.97 157.09 2453.57 162.418 2464.77 173.075C2476.17 183.548 2481.86 196.318 2481.86 211.385C2481.86 226.267 2476.17 239.037 2464.77 249.694C2453.57 260.167 2439.97 265.404 2423.98 265.404Z" fill="black"/>
<path d="M2271.23 184.377V748.823H2171.46V184.377H2271.23Z" fill="black"/>
<path d="M1883.93 757.091C1842.58 757.091 1806.76 747.996 1776.44 729.806C1746.12 711.616 1722.6 686.168 1705.88 653.462C1689.35 620.757 1681.08 582.539 1681.08 538.809C1681.08 495.08 1689.35 456.77 1705.88 423.881C1722.6 390.992 1746.12 365.452 1776.44 347.262C1806.76 329.072 1842.58 319.977 1883.93 319.977C1925.27 319.977 1961.1 329.072 1991.41 347.262C2021.73 365.452 2045.16 390.992 2061.69 423.881C2078.41 456.77 2086.77 495.08 2086.77 538.809C2086.77 582.539 2078.41 620.757 2061.69 653.462C2045.16 686.168 2021.73 711.616 1991.41 729.806C1961.1 747.996 1925.27 757.091 1883.93 757.091ZM1884.48 677.165C1906.89 677.165 1925.63 671.01 1940.7 658.699C1955.77 646.205 1966.98 629.485 1974.33 608.538C1981.86 587.592 1985.63 564.257 1985.63 538.534C1985.63 512.627 1981.86 489.2 1974.33 468.254C1966.98 447.124 1955.77 430.312 1940.7 417.817C1925.63 405.323 1906.89 399.076 1884.48 399.076C1861.51 399.076 1842.4 405.323 1827.15 417.817C1812.08 430.312 1800.78 447.124 1793.25 468.254C1785.9 489.2 1782.23 512.627 1782.23 538.534C1782.23 564.257 1785.9 587.592 1793.25 608.538C1800.78 629.485 1812.08 646.205 1827.15 658.699C1842.4 671.01 1861.51 677.165 1884.48 677.165Z" fill="black"/>
<path d="M1280 748.823V184.377H1641.6V270.091H1382.25V423.329H1616.79V509.043H1382.25V748.823H1280Z" fill="black"/>
</svg>
