<svg width="3110" height="1000" viewBox="0 0 3110 1000" fill="none" xmlns="http://www.w3.org/2000/svg">
<path d="M2901.54 717.481C2931.67 717.481 2953.98 708.275 2968.49 689.865C2983.55 671.455 2991.08 645.513 2991.08 612.039V476.472C2991.08 442.998 2983.55 417.056 2968.49 398.646C2953.98 380.235 2931.67 371.03 2901.54 371.03C2871.41 371.03 2848.82 380.235 2833.76 398.646C2819.25 417.056 2812 442.998 2812 476.472V612.039C2812 645.513 2819.25 671.455 2833.76 689.865C2848.82 708.275 2871.41 717.481 2901.54 717.481ZM2901.54 772.712C2870.3 772.712 2841.85 767.691 2816.18 757.649C2791.08 747.049 2769.32 731.986 2750.91 712.46C2733.06 692.376 2719.11 668.386 2709.07 640.492C2699.02 612.039 2694 579.96 2694 544.255C2694 508.55 2699.02 476.751 2709.07 448.856C2719.11 420.403 2733.06 396.414 2750.91 376.888C2769.32 356.804 2791.08 341.741 2816.18 331.699C2841.85 321.099 2870.3 315.799 2901.54 315.799C2932.78 315.799 2960.95 321.099 2986.06 331.699C3011.72 341.741 3033.48 356.804 3051.33 376.888C3069.74 396.414 3083.97 420.403 3094.01 448.856C3104.05 476.751 3109.08 508.55 3109.08 544.255C3109.08 579.96 3104.05 612.039 3094.01 640.492C3083.97 668.386 3069.74 692.376 3051.33 712.46C3033.48 731.986 3011.72 747.049 2986.06 757.649C2960.95 767.691 2932.78 772.712 2901.54 772.712Z" fill="black"/>
<path d="M2544.12 256.383C2523.48 256.383 2507.3 250.526 2495.59 238.81C2484.43 227.094 2478.85 211.752 2478.85 192.784V188.6C2478.85 169.631 2484.43 154.289 2495.59 142.574C2507.3 130.858 2523.48 125 2544.12 125C2564.77 125 2580.67 130.858 2591.82 142.574C2603.54 154.289 2609.4 169.631 2609.4 188.6V192.784C2609.4 211.752 2603.54 227.094 2591.82 238.81C2580.67 250.526 2564.77 256.383 2544.12 256.383ZM2436.17 712.46H2489.73V401.993L2436.17 391.114V349.272L2599.36 315.799V712.46H2652.91V762.67H2436.17V712.46Z" fill="black"/>
<path d="M2177.29 712.46H2230.85V212.868L2177.29 201.989V160.147L2340.47 126.674V712.46H2394.03V762.67H2177.29V712.46Z" fill="black"/>
<path d="M1927.77 717.481C1957.89 717.481 1980.21 708.275 1994.71 689.865C2009.78 671.455 2017.31 645.513 2017.31 612.039V476.472C2017.31 442.998 2009.78 417.056 1994.71 398.646C1980.21 380.235 1957.89 371.03 1927.77 371.03C1897.64 371.03 1875.05 380.235 1859.98 398.646C1845.48 417.056 1838.22 442.998 1838.22 476.472V612.039C1838.22 645.513 1845.48 671.455 1859.98 689.865C1875.05 708.275 1897.64 717.481 1927.77 717.481ZM1927.77 772.712C1896.52 772.712 1868.07 767.691 1842.41 757.649C1817.3 747.049 1795.55 731.986 1777.14 712.46C1759.28 692.376 1745.34 668.386 1735.29 640.492C1725.25 612.039 1720.23 579.96 1720.23 544.255C1720.23 508.55 1725.25 476.751 1735.29 448.856C1745.34 420.403 1759.28 396.414 1777.14 376.888C1795.55 356.804 1817.3 341.741 1842.41 331.699C1868.07 321.099 1896.52 315.799 1927.77 315.799C1959.01 315.799 1987.18 321.099 2012.29 331.699C2037.95 341.741 2059.71 356.804 2077.56 376.888C2095.97 396.414 2110.2 420.403 2120.24 448.856C2130.28 476.751 2135.3 508.55 2135.3 544.255C2135.3 579.96 2130.28 612.039 2120.24 640.492C2110.2 668.386 2095.97 692.376 2077.56 712.46C2059.71 731.986 2037.95 747.049 2012.29 757.649C1987.18 767.691 1959.01 772.712 1927.77 772.712Z" fill="black"/>
<path d="M1250 712.459H1309.42V228.767H1250V178.557H1706.08V330.024H1619.88V232.951H1426.57V442.997H1553.77V387.766H1611.51V552.623H1553.77V497.392H1426.57V712.459H1506.07V762.669H1250V712.459Z" fill="black"/>
<path d="M841.143 672.689L503.903 874.971L166.664 672.689V125.002L503.903 327.283L841.143 125.002V672.689ZM274.64 611.657L449.908 716.785V420.808L274.64 315.68V611.657ZM557.898 420.808V716.785L733.167 611.657V315.68L557.898 420.808Z" fill="#FF7A42"/>
</svg>
